<?xml version='1.0' encoding='UTF-8'?>
<svg x="0px" y="0px" viewBox="0 0 32 32" version="1.1" xmlns="http://www.w3.org/2000/svg" xmlns:xlink="http://www.w3.org/1999/xlink" enable-background="new 0 0 32 32" xml:space="preserve" id="Open">
  <style type="text/css">
	.Yellow{fill:#FFB115;}
	.st0{opacity:0.75;}
</style>
  <g opacity="0.75" class="st0">
    <path d="M2.2,25.2l5.5-12c0.3-0.7,1-1.2,1.8-1.2H26V9c0-0.6-0.4-1-1-1H12V5c0-0.6-0.4-1-1-1H3C2.4,4,2,4.4,2,5v20   c0,0.2,0,0.3,0.1,0.4C2.1,25.3,2.2,25.3,2.2,25.2z" fill="#FFB115" opacity="0.75" class="Yellow" />
  </g>
  <path d="M31.3,14H9.6L4,26h21.8c0.5,0,1.1-0.3,1.3-0.7L32,14.7C32.1,14.3,31.8,14,31.3,14z" fill="#FFB115" class="Yellow" />
</svg>